<?xml version="1.0" encoding="utf-8"?>
<svg viewBox="0 0 729 150" width="729" height="150" xmlns="http://www.w3.org/2000/svg">
  <path d="M 208.772 127.826 C 201.487 127.826 194.925 126.579 189.087 124.084 C 183.248 121.589 178.633 117.996 175.24 113.305 C 171.846 108.615 170.1 103.076 170 96.689 L 192.455 96.689 C 192.754 100.98 194.276 104.373 197.021 106.868 C 199.765 109.363 203.533 110.611 208.323 110.611 C 213.214 110.611 217.056 109.438 219.85 107.093 C 222.645 104.747 224.042 101.679 224.042 97.886 C 224.042 94.792 223.094 92.248 221.198 90.251 C 219.301 88.255 216.931 86.684 214.087 85.536 C 211.243 84.388 207.325 83.116 202.335 81.719 C 195.549 79.723 190.035 77.751 185.793 75.805 C 181.552 73.859 177.909 70.915 174.865 66.973 C 171.821 63.031 170.299 57.766 170.299 51.18 C 170.299 44.992 171.846 39.603 174.94 35.012 C 178.034 30.421 182.375 26.903 187.964 24.458 C 193.553 22.013 199.94 20.79 207.126 20.79 C 217.904 20.79 226.662 23.41 233.398 28.65 C 240.135 33.889 243.852 41.2 244.551 50.581 L 221.497 50.581 C 221.297 46.988 219.775 44.019 216.931 41.674 C 214.087 39.328 210.319 38.156 205.629 38.156 C 201.537 38.156 198.268 39.204 195.823 41.299 C 193.378 43.395 192.156 46.439 192.156 50.431 C 192.156 53.226 193.079 55.546 194.925 57.392 C 196.771 59.239 199.067 60.736 201.811 61.883 C 204.556 63.031 208.423 64.353 213.413 65.85 C 220.2 67.846 225.739 69.842 230.03 71.838 C 234.321 73.834 238.014 76.828 241.108 80.82 C 244.202 84.812 245.748 90.052 245.748 96.539 C 245.748 102.128 244.301 107.317 241.407 112.108 C 238.513 116.898 234.271 120.716 228.683 123.56 C 223.094 126.404 216.457 127.826 208.772 127.826 Z M 288.256 61.06 L 288.256 101.18 C 288.256 103.974 288.93 105.995 290.277 107.243 C 291.625 108.49 293.895 109.114 297.089 109.114 L 306.819 109.114 L 306.819 126.778 L 293.646 126.778 C 275.981 126.778 267.149 118.196 267.149 101.03 L 267.149 61.06 L 257.268 61.06 L 257.268 43.844 L 267.149 43.844 L 267.149 23.335 L 288.256 23.335 L 288.256 43.844 L 306.819 43.844 L 306.819 61.06 L 288.256 61.06 Z M 401.284 43.844 L 349.937 166 L 327.632 166 L 345.596 124.683 L 312.362 43.844 L 335.865 43.844 L 357.272 101.778 L 378.979 43.844 L 401.284 43.844 Z M 407.125 85.311 C 407.125 76.729 408.871 69.219 412.364 62.781 C 415.857 56.344 420.698 51.354 426.885 47.811 C 433.073 44.268 440.159 42.497 448.143 42.497 C 458.422 42.497 466.93 45.067 473.667 50.207 C 480.403 55.346 484.919 62.557 487.215 71.838 L 464.61 71.838 C 463.412 68.246 461.391 65.426 458.547 63.38 C 455.703 61.334 452.185 60.311 447.993 60.311 C 442.005 60.311 437.264 62.482 433.771 66.823 C 430.278 71.165 428.532 77.327 428.532 85.311 C 428.532 93.196 430.278 99.308 433.771 103.65 C 437.264 107.991 442.005 110.162 447.993 110.162 C 456.476 110.162 462.015 106.369 464.61 98.784 L 487.215 98.784 C 484.919 107.766 480.378 114.902 473.592 120.192 C 466.805 125.481 458.322 128.126 448.143 128.126 C 440.159 128.126 433.073 126.354 426.885 122.811 C 420.698 119.268 415.857 114.278 412.364 107.841 C 408.871 101.404 407.125 93.894 407.125 85.311 Z M 551.727 126.778 L 523.583 91.449 L 523.583 126.778 L 502.625 126.778 L 502.625 16 L 523.583 16 L 523.583 79.024 L 551.427 43.844 L 578.673 43.844 L 542.146 85.461 L 578.972 126.778 L 551.727 126.778 Z M 667.155 83.515 C 667.155 86.509 666.955 89.204 666.556 91.599 L 605.927 91.599 C 606.426 97.587 608.522 102.277 612.215 105.671 C 615.907 109.064 620.448 110.76 625.837 110.76 C 633.622 110.76 639.161 107.417 642.454 100.731 L 665.059 100.731 C 662.664 108.715 658.073 115.276 651.286 120.416 C 644.5 125.556 636.167 128.126 626.286 128.126 C 618.302 128.126 611.142 126.354 604.804 122.811 C 598.467 119.268 593.527 114.253 589.984 107.766 C 586.441 101.279 584.67 93.794 584.67 85.311 C 584.67 76.729 586.416 69.194 589.909 62.707 C 593.402 56.22 598.292 51.23 604.58 47.737 C 610.867 44.244 618.103 42.497 626.286 42.497 C 634.171 42.497 641.232 44.194 647.469 47.587 C 653.707 50.98 658.547 55.795 661.99 62.033 C 665.433 68.27 667.155 75.431 667.155 83.515 Z M 645.448 77.527 C 645.348 72.138 643.402 67.821 639.61 64.578 C 635.817 61.334 631.177 59.713 625.688 59.713 C 620.498 59.713 616.132 61.284 612.589 64.428 C 609.046 67.572 606.875 71.938 606.077 77.527 L 645.448 77.527 Z M 703.372 56.719 C 706.067 52.327 709.585 48.884 713.926 46.389 C 718.267 43.894 723.233 42.647 728.821 42.647 L 728.821 64.653 L 723.282 64.653 C 716.696 64.653 711.731 66.2 708.387 69.293 C 705.044 72.387 703.372 77.776 703.372 85.461 L 703.372 126.778 L 682.414 126.778 L 682.414 43.844 L 703.372 43.844 L 703.372 56.719 Z" style="fill: rgb(51, 51, 51); white-space: pre;"/>
  <path id="color_x5F_1_18_" fill="#464646" d="M 126.853 150 C 139.637 150 150 139.637 150 126.853 L 150 23.147 C 150 10.363 139.637 0 126.853 0 L 23.147 0 C 10.363 0 0 10.363 0 23.147 L 0 126.853 C 0 139.637 10.363 150 23.147 150 L 126.853 150 Z M 32.459 43.982 C 32.459 37.618 37.618 32.459 43.982 32.459 L 106.018 32.459 C 112.382 32.459 117.541 37.618 117.541 43.982 L 117.541 106.018 C 117.541 112.382 112.382 117.541 106.018 117.541 L 43.982 117.541 C 37.618 117.541 32.459 112.382 32.459 106.018 L 32.459 43.982 Z"/>
</svg>